<svg width="14" height="14" viewBox="0 0 14 14" fill="none" xmlns="http://www.w3.org/2000/svg">
<path d="M3.13431 4.35276L10.2597 1.21618C10.4023 1.15367 10.5638 1.15032 10.7089 1.20685C10.7806 1.23524 10.8459 1.27754 10.9012 1.3313C10.9564 1.38506 11.0005 1.44923 11.0309 1.5201L12.7809 5.60343C12.8418 5.74561 12.8438 5.90617 12.7864 6.0498C12.7289 6.19344 12.6168 6.30838 12.4746 6.36935L8.41638 8.10826L9.13972 9.9166H11.6615V8.1666H12.8281V12.8333H11.6615V11.0833H9.13972C8.65963 11.0833 8.23438 10.7951 8.05705 10.3494L7.34422 8.56793L5.34981 9.42251C5.20827 9.48334 5.04841 9.4857 4.90514 9.42909C4.76186 9.37248 4.6468 9.26149 4.58506 9.12035L2.83506 5.12043C2.77315 4.97892 2.76988 4.81864 2.82598 4.67473C2.88208 4.53082 2.99296 4.41503 3.13431 4.35276ZM2.36898 9.55026L3.45281 9.11743L2.28731 6.20076L1.20348 6.63301L2.36898 9.55026Z" fill="#91919C"/>
</svg>
