<svg width="18" height="18" viewBox="0 0 18 18" fill="none" xmlns="http://www.w3.org/2000/svg">
<g clip-path="url(#clip0_1105_10051)">
<path d="M9 1.5C9.19891 1.5 9.38968 1.57902 9.53033 1.71967C9.67098 1.86032 9.75 2.05109 9.75 2.25V2.29125C11.2716 2.46181 12.6902 3.14443 13.7729 4.22713C14.8556 5.30984 15.5382 6.72835 15.7087 8.25H15.75C15.9489 8.25 16.1397 8.32902 16.2803 8.46967C16.421 8.61032 16.5 8.80109 16.5 9C16.5 9.19891 16.421 9.38968 16.2803 9.53033C16.1397 9.67098 15.9489 9.75 15.75 9.75H15.7087C15.5382 11.2716 14.8556 12.6902 13.7729 13.7729C12.6902 14.8556 11.2716 15.5382 9.75 15.7087V15.75C9.75 15.9489 9.67098 16.1397 9.53033 16.2803C9.38968 16.421 9.19891 16.5 9 16.5C8.80109 16.5 8.61032 16.421 8.46967 16.2803C8.32902 16.1397 8.25 15.9489 8.25 15.75V15.7087C6.72835 15.5382 5.30984 14.8556 4.22713 13.7729C3.14443 12.6902 2.46181 11.2716 2.29125 9.75H2.25C2.05109 9.75 1.86032 9.67098 1.71967 9.53033C1.57902 9.38968 1.5 9.19891 1.5 9C1.5 8.80109 1.57902 8.61032 1.71967 8.46967C1.86032 8.32902 2.05109 8.25 2.25 8.25H2.29125C2.46181 6.72835 3.14443 5.30984 4.22713 4.22713C5.30984 3.14443 6.72835 2.46181 8.25 2.29125V2.25C8.25 2.05109 8.32902 1.86032 8.46967 1.71967C8.61032 1.57902 8.80109 1.5 9 1.5ZM9.75 3.8025V4.5C9.74979 4.69116 9.67659 4.87502 9.54536 5.01403C9.41414 5.15303 9.23478 5.23668 9.04395 5.24788C8.85312 5.25908 8.66521 5.19699 8.51862 5.0743C8.37204 4.95161 8.27783 4.77757 8.25525 4.58775L8.25 4.5V3.8025C7.16084 3.96024 6.1487 4.45598 5.35638 5.21977C4.56406 5.98356 4.03156 6.97685 3.834 8.0595L3.80325 8.25H4.5C4.69116 8.25021 4.87502 8.32341 5.01403 8.45464C5.15303 8.58586 5.23668 8.76521 5.24788 8.95605C5.25908 9.14688 5.19699 9.33478 5.0743 9.48137C4.95161 9.62796 4.77757 9.72217 4.58775 9.74475L4.5 9.75H3.8025C3.96024 10.8392 4.45598 11.8513 5.21977 12.6436C5.98356 13.4359 6.97685 13.9684 8.0595 14.166L8.25 14.1967V13.5C8.25021 13.3088 8.32341 13.125 8.45464 12.986C8.58586 12.847 8.76521 12.7633 8.95605 12.7521C9.14688 12.7409 9.33478 12.803 9.48137 12.9257C9.62796 13.0484 9.72217 13.2224 9.74475 13.4122L9.75 13.5V14.1975C10.8392 14.0398 11.8513 13.544 12.6436 12.7802C13.4359 12.0164 13.9684 11.0231 14.166 9.9405L14.1967 9.75H13.5C13.3088 9.74979 13.125 9.67659 12.986 9.54536C12.847 9.41414 12.7633 9.23478 12.7521 9.04395C12.7409 8.85312 12.803 8.66521 12.9257 8.51862C13.0484 8.37204 13.2224 8.27783 13.4122 8.25525L13.5 8.25H14.1975C14.0398 7.16084 13.544 6.1487 12.7802 5.35638C12.0164 4.56406 11.0231 4.03156 9.9405 3.834L9.75 3.8025ZM9 7.875C9.29837 7.875 9.58452 7.99353 9.79549 8.2045C10.0065 8.41548 10.125 8.70163 10.125 9C10.125 9.29837 10.0065 9.58452 9.79549 9.79549C9.58452 10.0065 9.29837 10.125 9 10.125C8.70163 10.125 8.41548 10.0065 8.2045 9.79549C7.99353 9.58452 7.875 9.29837 7.875 9C7.875 8.70163 7.99353 8.41548 8.2045 8.2045C8.41548 7.99353 8.70163 7.875 9 7.875Z" fill="#F6F8FA"/>
</g>
<defs>
<clipPath id="clip0_1105_10051">
<rect width="18" height="18" fill="#1C1E1F"/>
</clipPath>
</defs>
</svg>
