<svg width="30" height="30" viewBox="0 0 30 30" fill="none" xmlns="http://www.w3.org/2000/svg">
<g clip-path="url(#clip0_1105_10057)">
<path d="M11.875 15C13.3668 15 14.7976 14.4074 15.8525 13.3525C16.9074 12.2976 17.5 10.8668 17.5 9.375C17.5 7.88316 16.9074 6.45242 15.8525 5.39752C14.7976 4.34263 13.3668 3.75 11.875 3.75C10.3832 3.75 8.95242 4.34263 7.89752 5.39752C6.84263 6.45242 6.25 7.88316 6.25 9.375C6.25 10.8668 6.84263 12.2976 7.89752 13.3525C8.95242 14.4074 10.3832 15 11.875 15ZM26.25 11.25C26.25 12.2446 25.8549 13.1984 25.1517 13.9017C24.4484 14.6049 23.4946 15 22.5 15C21.5054 15 20.5516 14.6049 19.8483 13.9017C19.1451 13.1984 18.75 12.2446 18.75 11.25C18.75 10.2554 19.1451 9.30161 19.8483 8.59835C20.5516 7.89509 21.5054 7.5 22.5 7.5C23.4946 7.5 24.4484 7.89509 25.1517 8.59835C25.8549 9.30161 26.25 10.2554 26.25 11.25ZM11.875 16.25C14.3663 16.25 16.6313 17.01 18.2963 18.0825C19.13 18.62 19.8438 19.2538 20.3625 19.945C20.8713 20.6263 21.25 21.445 21.25 22.3213C21.25 23.265 20.8125 24.0212 20.17 24.5675C19.5637 25.08 18.7738 25.4125 17.9575 25.6413C16.3162 26.1 14.145 26.25 11.875 26.25C9.605 26.25 7.43375 26.1 5.79375 25.6413C4.97625 25.4125 4.18625 25.08 3.58125 24.5675C2.93625 24.0225 2.5 23.265 2.5 22.3213C2.5 21.4438 2.87875 20.6262 3.3875 19.9462C3.90625 19.2537 4.62 18.6187 5.45375 18.0837C7.11875 17.0087 9.38375 16.25 11.875 16.25ZM22.5 16.25C24.15 16.25 25.6475 16.795 26.75 17.5637C27.7775 18.28 28.75 19.41 28.75 20.7137C28.75 21.4475 28.4338 22.055 27.9525 22.4963C27.5062 22.9062 26.9412 23.1562 26.3975 23.3212C25.31 23.65 23.91 23.75 22.5 23.75H22.2463C22.4088 23.315 22.5 22.8375 22.5 22.3213C22.5 21.0837 21.9713 20.0088 21.3625 19.1963C20.755 18.385 19.95 17.6713 19.0513 17.0825C20.1187 16.5359 21.3007 16.2506 22.5 16.25Z" fill="#3EB9FE"/>
</g>
<defs>
<clipPath id="clip0_1105_10057">
<rect width="30" height="30" fill="white"/>
</clipPath>
</defs>
</svg>
