<svg width="16" height="57" viewBox="0 0 16 57" fill="none" xmlns="http://www.w3.org/2000/svg">
<path d="M14 6C14 9.31371 11.3137 12 8 12C4.68629 12 2 9.31371 2 6C2 2.68629 4.68629 0 8 0C11.3137 0 14 2.68629 14 6Z" fill="#2DCA8B" fill-opacity="0.4"/>
<path d="M11.2311 6C11.2311 7.7843 9.78461 9.23076 8.0003 9.23076C6.216 9.23076 4.76953 7.7843 4.76953 6C4.76953 4.21569 6.216 2.76923 8.0003 2.76923C9.78461 2.76923 11.2311 4.21569 11.2311 6Z" fill="#27C384"/>
<path d="M8 14L8 39" stroke="#27C384" stroke-dasharray="2 2"/>
<path fill-rule="evenodd" clip-rule="evenodd" d="M8.0013 55L8.4733 55.4706C8.41136 55.5328 8.33775 55.5822 8.2567 55.6158C8.17564 55.6495 8.08874 55.6668 8.00097 55.6668C7.9132 55.6668 7.82629 55.6495 7.74524 55.6158C7.66418 55.5822 7.59058 55.5328 7.52864 55.4706L7.52464 55.466L7.5133 55.4546L7.47197 55.4126C7.23696 55.1706 7.00582 54.9248 6.77864 54.6753C6.20824 54.0503 5.66205 53.4036 5.1413 52.7366C4.54664 51.97 3.93864 51.1033 3.47664 50.2473C3.02464 49.408 2.66797 48.4986 2.66797 47.6666C2.66797 44.6406 5.06264 42.3333 8.0013 42.3333C10.94 42.3333 13.3346 44.6406 13.3346 47.6666C13.3346 48.4986 12.978 49.408 12.526 50.2466C12.064 51.104 11.4566 51.97 10.8613 52.7366C10.1329 53.6697 9.35488 54.563 8.53064 55.4126L8.4893 55.4546L8.47797 55.466L8.47397 55.47L8.0013 55ZM8.0013 49.6666C8.53174 49.6666 9.04044 49.4559 9.41552 49.0809C9.79059 48.7058 10.0013 48.1971 10.0013 47.6666C10.0013 47.1362 9.79059 46.6275 9.41552 46.2524C9.04044 45.8774 8.53174 45.6666 8.0013 45.6666C7.47087 45.6666 6.96216 45.8774 6.58709 46.2524C6.21202 46.6275 6.0013 47.1362 6.0013 47.6666C6.0013 48.1971 6.21202 48.7058 6.58709 49.0809C6.96216 49.4559 7.47087 49.6666 8.0013 49.6666Z" fill="#27C384"/>
</svg>
